<svg xmlns:xlink="http://www.w3.org/1999/xlink" viewBox="3467.823834196891 7879.079999999999 14822.150259067357 14305.28" style="max-height: 500px" version="1.1" xml:space="preserve" xmlns="http://www.w3.org/2000/svg" width="14822.150259067357" height="14305.28">
 <defs>
  <style type="text/css">
   
    .str5 {stroke:#373435;stroke-width:100;stroke-miterlimit:22.9256}
    .str4 {stroke:#373435;stroke-width:300;stroke-miterlimit:22.9256}
    .str6 {stroke:#373435;stroke-width:150;stroke-miterlimit:22.9256}
    .str0 {stroke:#373435;stroke-width:250;stroke-miterlimit:22.9256}
    .str3 {stroke:#FEFEFE;stroke-width:20;stroke-miterlimit:22.9256}
    .str1 {stroke:#3BB403;stroke-width:20;stroke-miterlimit:22.9256}
    .str2 {stroke:#C2F74C;stroke-width:20;stroke-miterlimit:22.9256}
    .fil2 {fill:none}
    .fil4 {fill:#FEFEFE}
    .fil6 {fill:#FEFEFE}
    .fil3 {fill:#373435}
    .fil9 {fill:#056102}
    .fil7 {fill:#218503}
    .fil0 {fill:#3BB403}
    .fil8 {fill:#9ADA36}
    .fil5 {fill:#C2F74C}
    .fil1 {fill:#FEF536}
    .fil10 {fill:#373435;fill-rule:nonzero}
   
  </style>
 </defs>
 <g id="Layer_x0020_1">
  <metadata id="CorelCorpID_0Corel-Layer"/>
  <g id="_1297315805136">
   <g>
    <g>
     <polygon points="9874.97,13569.75 11517.63,13569.75 11517.63,15141.48 11506.17,15133.41 10898.74,15995.57 10460.47,15995.57 9910.84,15127.87 9874.97,15150.59" class="fil0"/>
     <path d="M10988 12642.03c181.55,312.8 293.38,739.42 293.38,1209.79 0,959.43 -465.06,1737.2 -1038.75,1737.2 -21.11,0 -42.07,-1.07 -62.87,-3.15l-417.67 -987.77 325.39 -1378.53 383.87 -577.54 516.65 0z" class="fil1"/>
     <path d="M10464.29 12611.24c-881.54,1386.72 -811.95,2547.44 208.77,3482.18" class="fil2 str0"/>
     <path d="M10926.98 12611.24c881.54,1386.72 811.95,2547.44 -208.77,3482.18" class="fil2 str0"/>
     <circle r="124.85" cy="16765.04" cx="10684.14" class="fil3"/>
     <line y2="16037.74" x2="10690.32" y1="16765.05" x1="10684.13" class="fil2 str0"/>
     <circle r="267.59" cy="13619.05" cx="10458.85" class="fil4"/>
     <circle r="120.22" cy="14207.14" cx="10356.38" class="fil4"/>
     <circle r="501.61" cy="10470.18" cx="10686.64" class="fil0 str1"/>
     <circle r="443.73" cy="10317.32" cx="10584.24" class="fil5 str2"/>
     <circle r="225.58" cy="10289.12" cx="10464.03" class="fil6 str3"/>
     <circle r="601.68" cy="10471.67" cx="10696" class="fil2 str0"/>
     <circle r="573.29" cy="11931.07" cx="10671.2" class="fil0 str1"/>
     <circle r="507.13" cy="11756.37" cx="10554.16" class="fil5 str2"/>
     <circle r="257.81" cy="11724.14" cx="10416.78" class="fil6 str3"/>
     <circle r="687.66" cy="11932.77" cx="10681.9" class="fil2 str0"/>
     <path d="M10869.22 9858.65c217.15,-460.17 530.51,-1021.77 876.44,-1142.52 1177.84,-411.16 1455.31,1270.11 540.3,1279.14 -604.46,5.97 -531.77,-730.32 -63.59,-739.62" class="fil2 str0"/>
     <circle r="124.85" cy="9256.83" cx="12210.14" class="fil3"/>
     <path d="M10554.39 9858.65c-217.15,-460.17 -530.51,-1021.77 -876.44,-1142.52 -1177.84,-411.16 -1455.31,1270.11 -540.3,1279.14 604.46,5.97 531.77,-730.32 63.59,-739.62" class="fil2 str0"/>
     <circle r="124.85" cy="9256.83" cx="9213.48" class="fil3"/>
    </g>
    <g>
     <g>
      <polygon points="12338.79,12339.8 12961.33,12339.8 15235.2,13240.37 15674.82,13614.75 15674.82,14182.33 15302.69,14545.59 13892.19,14545.59 13044.06,14209.69 11801.4,13102.67" class="fil7"/>
      <path d="M11690.52 12861.1l223.55 -248.58 1684.43 915.24c62.2,262.17 22.64,524.23 -118.69,786.19l-1277.85 -680.54 31.25 -22.62 -542.69 -749.69z" class="fil8"/>
      <path d="M12243.27 12291.09l2691.54 830.32c35.79,303.16 -136.41,544.48 -516.61,723.98l-2504.13 -1232.87 329.2 -321.43z" class="fil8"/>
      <path d="M12232.6 12264.35l1569.65 532.21c-735.61,-134.56 -1346.47,-244.3 -1832.59,-329.23l262.94 -202.98z" class="fil6"/>
      <path d="M12358.72 12336.04c6668.81,1225.2 1697.21,4085.11 -770.78,375.37" class="fil2 str0"/>
      <path d="M11793.78 12598.33l1651.74 925.58c-348.2,-1.1 -680.44,-249.52 -1643.23,-787.1l-8.51 -138.48z" class="fil6"/>
      <path d="M13511.8 13525.83l1611.75 528.63c-303.26,80.91 -802.2,-22.6 -1496.82,-310.54l-114.93 -218.09z" class="fil8"/>
      <path d="M11675.85 12526.74c647.22,132.32 2603.51,1823.68 4013.66,1344.54" class="fil2 str0"/>
      <circle r="124.85" cy="12711.42" cx="11587.93" class="fil3"/>
      <circle r="124.85" cy="12529.55" cx="11689.58" class="fil3"/>
      <circle r="124.85" cy="12529.55" cx="11689.58" class="fil3"/>
      <rect height="151.35" width="89.86" transform="matrix(0.867189 0.497979 -0.723592 1.26007 11589.9 12456.3)" class="fil3"/>
     </g>
     <g>
      <path d="M16005.35 10902.62l0 226.34 -313.26 507.41 -1489.21 780.56 31.13 59.4 -1542.46 0 -768.78 -238.06 0 -609.51c2618.5,-1372.99 3849.23,-1252.54 4082.58,-726.14z" class="fil8"/>
      <path d="M15925.31 11186.19l-21.76 -585.3c-495,461.98 -582.08,1178.77 -1422.92,1313.54l824.07 -28.28 620.61 -699.96z" class="fil9"/>
      <path d="M14300.34 11899.78l99.21 205.29c-830.46,80.64 -1176.33,-387.73 -2476.78,14.93l-276.07 -220.22 1409.39 -222.92 1244.25 222.92z" class="fil6"/>
      <path d="M11769.95 11460.22c6569.02,-3492.19 4596.85,2260.92 30.56,718.52" class="fil2 str0"/>
      <circle r="124.85" cy="10946.06" cx="15364.4" class="fil6"/>
      <path d="M13334.63 11634.93l1753.38 -640.67 320.54 68.61c-545.5,285.41 -1073.87,501.06 -1631.87,632.92l-442.05 -60.86z" class="fil6"/>
      <path d="M11847.26 11838.22c1356.33,-108.04 2449.1,-407.58 3501.55,-979.73" class="fil2 str0"/>
      <circle r="124.85" cy="10858.49" cx="15348.81" class="fil3"/>
      <circle r="124.85" cy="10859.17" cx="14730.03" class="fil3"/>
      <path d="M14730.04 10859.17c-210.56,233.61 -385.27,402.98 -524.11,508.1" class="fil2 str0"/>
      <path d="M13181.63 11651.45c517.71,209.39 1187.03,362.56 1977.57,316.24" class="fil2 str4"/>
      <circle r="124.85" cy="11944.17" cx="15149.32" class="fil3"/>
      <path d="M12448.34 11845.72c156.37,-34.48 286.41,-34.39 437.49,-61.12 282.16,-49.92 655.93,100.3 1085.03,195.16" class="fil2 str5"/>
      <circle r="124.85" cy="11460.81" cx="11768.26" class="fil3"/>
      <circle r="124.85" cy="12183.76" cx="11814.34" class="fil3"/>
     </g>
    </g>
    <g>
     <g>
      <polygon points="9064.73,12339.8 8442.19,12339.8 6168.32,13240.37 5728.7,13614.75 5728.7,14182.33 6100.83,14545.59 7511.33,14545.59 8359.46,14209.69 9602.12,13102.67" class="fil7"/>
      <path d="M9713 12861.1l-223.55 -248.58 -1684.43 915.24c-62.2,262.17 -22.64,524.23 118.69,786.19l1277.85 -680.54 -31.25 -22.62 542.69 -749.69z" class="fil8"/>
      <path d="M9160.25 12291.09l-2691.54 830.32c-35.79,303.16 136.41,544.48 516.61,723.98l2504.13 -1232.87 -329.2 -321.43z" class="fil8"/>
      <path d="M9170.92 12264.35l-1569.65 532.21c735.61,-134.56 1346.47,-244.3 1832.59,-329.23l-262.94 -202.98z" class="fil6"/>
      <path d="M9044.8 12336.04c-6668.81,1225.2 -1697.21,4085.11 770.78,375.37" class="fil2 str0"/>
      <path d="M9609.74 12598.33l-1651.74 925.58c348.2,-1.1 680.44,-249.52 1643.23,-787.1l8.51 -138.48z" class="fil6"/>
      <path d="M7891.72 13525.83l-1611.75 528.63c303.26,80.91 802.2,-22.6 1496.82,-310.54l114.93 -218.09z" class="fil8"/>
      <path d="M9727.67 12526.74c-647.22,132.32 -2603.51,1823.68 -4013.66,1344.54" class="fil2 str0"/>
      <circle r="124.85" cy="12711.42" cx="9815.58" class="fil3"/>
      <circle r="124.85" cy="12529.55" cx="9713.94" class="fil3"/>
      <circle r="124.85" cy="12529.55" cx="9713.94" class="fil3"/>
      <rect height="151.35" width="89.86" transform="matrix(-0.867189 0.497979 0.723592 1.26007 9813.62 12456.3)" class="fil3"/>
     </g>
     <g>
      <path d="M5398.17 10902.62l0 226.34 313.26 507.41 1489.21 780.56 -31.13 59.4 1542.46 0 768.78 -238.06 0 -609.51c-2618.5,-1372.99 -3849.23,-1252.54 -4082.58,-726.14z" class="fil8"/>
      <path d="M5478.21 11186.19l21.76 -585.3c495,461.98 582.08,1178.77 1422.92,1313.54l-824.07 -28.28 -620.61 -699.96z" class="fil9"/>
      <path d="M7103.18 11899.78l-99.21 205.29c830.46,80.64 1176.33,-387.73 2476.78,14.93l276.07 -220.22 -1409.39 -222.92 -1244.25 222.92z" class="fil6"/>
      <path d="M9633.57 11460.22c-6569.02,-3492.19 -4596.85,2260.92 -30.56,718.52" class="fil2 str0"/>
      <circle r="124.85" cy="10946.06" cx="6039.11" class="fil6"/>
      <path d="M8068.89 11634.93l-1753.38 -640.67 -320.54 68.61c545.5,285.41 1073.87,501.06 1631.87,632.92l442.05 -60.86z" class="fil6"/>
      <path d="M9556.26 11838.22c-1356.33,-108.04 -2449.1,-407.58 -3501.55,-979.73" class="fil2 str0"/>
      <circle r="124.85" cy="10858.49" cx="6054.72" class="fil3"/>
      <circle r="124.85" cy="10859.17" cx="6673.48" class="fil3"/>
      <path d="M6673.48 10859.17c210.56,233.61 385.27,402.98 524.11,508.1" class="fil2 str0"/>
      <path d="M8221.89 11651.45c-517.71,209.39 -1187.03,362.56 -1977.57,316.24" class="fil2 str4"/>
      <circle r="124.85" cy="11944.17" cx="6254.2" class="fil3"/>
      <path d="M8955.18 11845.72c-156.37,-34.48 -286.41,-34.39 -437.49,-61.12 -282.16,-49.92 -655.93,100.3 -1085.03,195.16" class="fil2 str5"/>
      <circle r="124.85" cy="11460.81" cx="9635.25" class="fil3"/>
      <circle r="124.85" cy="12183.76" cx="9589.17" class="fil3"/>
     </g>
    </g>
   </g>
   <ellipse ry="180.22" rx="183.83" cy="15367.75" cx="12350.97" class="fil3"/>
   <ellipse ry="180.22" rx="183.83" cy="15367.75" cx="13010.04" class="fil3"/>
   <ellipse ry="180.22" rx="183.83" cy="15367.75" cx="8400.43" class="fil3"/>
   <ellipse ry="180.22" rx="183.83" cy="15367.75" cx="9059.5" class="fil3"/>
  </g>
  <path d="M4654.3 19212.25c30.96,0 53.08,-13.27 64.14,-42.03l508.72 -1307.18c44.23,-110.59 86.26,-165.88 139.34,-172.52 17.7,-2.21 22.12,-8.84 22.12,-24.33 0,-15.48 -8.85,-24.33 -24.33,-24.33l-429.09 0c-15.48,0 -24.33,8.85 -24.33,24.33 0,15.49 4.42,22.12 22.12,24.33 117.22,22.12 128.28,90.69 97.32,172.52l-276.48 749.81 -283.11 -749.81c-42.03,-110.59 -15.48,-157.03 103.95,-172.52 17.7,-2.21 22.12,-8.84 22.12,-24.33 0,-15.48 -8.85,-24.33 -24.33,-24.33l-625.94 0c-15.48,0 -24.33,8.85 -24.33,24.33 0,15.49 4.42,22.12 22.12,24.33 75.2,13.27 117.22,90.69 148.19,172.52l502.08 1307.18c11.06,28.76 28.75,42.03 59.72,42.03z" class="fil10"/>
  <path d="M6831.65 19267.54c15.48,0 22.12,-11.06 24.33,-26.54l48.66 -521.99c2.21,-15.48 -8.85,-24.33 -24.33,-24.33 -15.49,0 -22.12,4.43 -24.33,22.12 -22.12,179.16 -201.28,314.08 -400.34,314.08l-190.22 0 0 -488.81c190.22,-101.74 406.98,77.41 583.92,-165.89 -176.94,77.42 -393.7,-101.74 -583.92,0l0 -575.07 139.35 0c199.06,0 378.22,134.92 400.34,314.08 2.21,17.69 8.84,22.12 24.33,22.12 15.48,0 26.54,-8.85 24.33,-24.33l-48.66 -521.99c-2.22,-15.48 -8.85,-26.54 -24.33,-26.54 -15.49,0 -19.91,6.64 -24.33,24.33 -8.85,39.81 -44.24,53.08 -137.14,53.08l-825 0c-15.48,0 -24.33,8.85 -24.33,24.33 0,15.49 4.42,22.12 22.12,24.33 75.2,13.27 119.43,84.05 119.43,172.52l0 1105.91c0,88.47 -44.23,159.25 -119.43,172.52 -17.7,2.21 -22.12,8.85 -22.12,24.33 0,15.48 8.85,24.33 24.33,24.33l875.87 0c92.9,0 128.29,13.27 137.14,53.08 4.42,17.7 8.84,24.33 24.33,24.33z" class="fil10" id="_1"/>
  <path d="M8141.96 19205.61c176.95,0 342.83,-37.6 566.23,-132.71l0 -418.03c0,-88.47 44.23,-159.25 119.43,-172.52 17.7,-2.21 22.12,-8.85 22.12,-24.33 0,-15.48 -8.85,-24.33 -24.33,-24.33l-588.34 0c-15.48,0 -24.33,8.85 -24.33,24.33 0,15.48 4.42,22.12 22.12,24.33 75.2,13.27 119.44,84.05 119.44,172.52l0 309.66c-37.6,33.17 -86.26,53.08 -172.52,53.08 -247.73,0 -384.86,-163.68 -384.86,-612.67 0,-424.67 123.86,-608.25 336.2,-608.25 174.73,0 269.84,123.86 448.99,437.94 17.7,30.96 64.15,24.33 57.51,-19.91l-79.63 -513.14c-6.63,-39.81 -15.48,-46.45 -30.96,-50.87 -68.57,-15.48 -170.31,-30.97 -298.6,-30.97 -533.04,0 -820.58,269.85 -820.58,807.32 0,524.19 272.06,778.55 732.11,778.55z" class="fil10" id="_2"/>
  <path d="M9133.78 19190.13l429.09 0c15.48,0 24.33,-8.85 24.33,-24.33 0,-15.48 -4.42,-22.12 -22.12,-24.33 -117.22,-22.12 -126.07,-90.68 -95.11,-172.52l66.36 -174.73 433.51 0 66.36 174.73c30.96,81.84 46.45,152.61 -103.96,172.52 -17.69,2.21 -22.12,8.85 -22.12,24.33 0,15.48 8.85,24.33 24.33,24.33l617.1 0c15.48,0 24.33,-8.85 24.33,-24.33 0,-15.48 -4.42,-22.12 -22.12,-24.33 -75.2,-13.27 -117.22,-90.68 -148.19,-172.52l-499.87 -1307.18c-11.06,-28.75 -28.75,-42.03 -59.72,-42.03 -30.96,0 -53.08,13.28 -64.14,42.03l-510.93 1307.18c-42.02,110.59 -86.26,165.88 -139.34,172.52 -17.7,2.21 -22.12,8.85 -22.12,24.33 0,15.48 8.85,24.33 24.33,24.33zm464.48 -561.8l154.83 -411.4 154.82 411.4 -309.65 0z" class="fil10" id="_3"/>
  <path d="M11992.36 19267.54c15.49,0 22.12,-11.06 24.33,-26.54l48.66 -521.99c2.21,-15.48 -8.84,-24.33 -24.33,-24.33 -15.48,0 -22.11,4.43 -24.33,22.12 -22.11,179.16 -190.21,314.08 -400.33,314.08l-185.8 0 0 -1167.84c0,-88.47 44.24,-159.25 119.44,-172.52 17.7,-2.21 22.12,-8.84 22.12,-24.33 0,-15.48 -8.85,-24.33 -24.33,-24.33l-588.34 0c-15.48,0 -24.33,8.85 -24.33,24.33 0,15.49 4.42,22.12 22.12,24.33 75.2,13.27 119.43,84.05 119.43,172.52l0 1105.91c0,88.47 -44.23,159.25 -119.43,172.52 -17.7,2.21 -22.12,8.85 -22.12,24.33 0,15.48 8.85,24.33 24.33,24.33l871.45 0c92.9,0 128.29,13.27 137.13,53.08 4.43,17.7 8.85,24.33 24.33,24.33z" class="fil10" id="_4"/>
  <path d="M13154.49 19212.25c353.89,0 544.1,-194.64 544.1,-552.95l0 -794.04c0,-88.48 24.33,-159.25 99.53,-172.53 17.7,-2.21 22.12,-8.84 22.12,-24.33 0,-15.48 -8.85,-24.33 -24.33,-24.33l-440.15 0c-15.48,0 -24.33,8.85 -24.33,24.33 0,15.49 4.42,22.12 22.12,24.33 75.2,13.28 157.04,68.57 157.04,185.8l0 760.86c0,249.93 -95.11,356.1 -278.69,356.1 -214.55,0 -298.6,-145.98 -298.6,-336.19l0 -794.04c0,-88.48 44.24,-159.25 119.44,-172.53 17.7,-2.21 22.12,-8.84 22.12,-24.33 0,-15.48 -8.85,-24.33 -24.33,-24.33l-588.34 0c-15.48,0 -24.33,8.85 -24.33,24.33 0,15.49 4.42,22.12 22.12,24.33 75.2,13.28 119.43,84.05 119.43,172.53l0 794.04c0,309.65 179.16,552.95 575.08,552.95z" class="fil10" id="_5"/>
  <path d="M14248.05 19190.13l413.6 0c15.49,0 24.33,-8.85 24.33,-24.33 0,-15.48 -4.42,-22.12 -22.11,-24.33 -75.21,-13.27 -130.5,-84.05 -130.5,-172.52l0 -953.29 466.69 1046.19c28.76,61.93 55.3,61.93 81.84,0l477.75 -1110.33 0 1017.43c0,88.47 -44.24,163.67 -119.44,172.52 -17.69,2.21 -24.33,8.85 -24.33,24.33 0,15.48 11.06,24.33 26.54,24.33l588.34 0c15.49,0 24.33,-8.85 24.33,-24.33 0,-15.48 -4.42,-22.12 -22.11,-24.33 -75.2,-13.27 -119.44,-84.05 -119.44,-172.52l0 -1105.91c0,-88.47 44.24,-159.25 119.44,-172.52 17.69,-2.21 22.11,-8.84 22.11,-24.33 0,-15.48 -8.84,-24.33 -24.33,-24.33l-479.96 0c-48.66,0 -61.93,48.66 -81.83,95.11l-309.66 725.47 -190.21 -402.54c-163.68,-345.05 -154.83,-411.4 -325.14,-418.04l-418.03 0c-15.48,0 -24.33,8.85 -24.33,24.33 0,15.49 4.42,22.12 22.12,24.33 75.2,13.27 119.43,84.05 119.43,172.52l2.22 -8.84 0 1114.75c0,88.47 -24.33,159.25 -99.54,172.52 -17.69,2.21 -22.11,8.85 -22.11,24.33 0,15.48 8.84,24.33 24.33,24.33z" class="fil10" id="_6"/>
  <path d="M17509.18 19267.54c15.48,0 22.12,-11.06 24.33,-26.54l48.66 -521.99c2.21,-15.48 -8.85,-24.33 -24.33,-24.33 -15.49,0 -22.12,4.43 -24.33,22.12 -22.12,179.16 -201.28,314.08 -400.34,314.08l-190.22 0 0 -488.81c190.22,-101.74 406.98,77.41 583.92,-165.89 -176.94,77.42 -393.7,-101.74 -583.92,0l0 -575.07 139.35 0c199.06,0 378.22,134.92 400.34,314.08 2.21,17.69 8.84,22.12 24.33,22.12 15.48,0 26.54,-8.85 24.33,-24.33l-48.66 -521.99c-2.22,-15.48 -8.85,-26.54 -24.33,-26.54 -15.49,0 -19.91,6.64 -24.33,24.33 -8.85,39.81 -44.24,53.08 -137.14,53.08l-825 0c-15.48,0 -24.33,8.85 -24.33,24.33 0,15.49 4.42,22.12 22.12,24.33 75.2,13.27 119.43,84.05 119.43,172.52l0 1105.91c0,88.47 -44.23,159.25 -119.43,172.52 -17.7,2.21 -22.12,8.85 -22.12,24.33 0,15.48 8.85,24.33 24.33,24.33l875.87 0c92.9,0 128.29,13.27 137.14,53.08 4.42,17.7 8.84,24.33 24.33,24.33z" class="fil10" id="_7"/>
  <path d="M5022.3 21163.59l380.03 0c10,0 15.72,-5.71 15.72,-15.72 0,-10 -2.86,-14.28 -14.29,-15.71 -48.57,-8.57 -77.15,-54.29 -77.15,-111.44l0 -752.92 97.15 0c120.01,0 182.88,61.44 182.88,178.59 0,127.15 -74.3,181.44 -200.02,181.44l52.86 102.87 78.58 190.01c100.01,240.02 280.02,242.88 397.18,242.88 10,0 14.28,-4.29 14.28,-14.29l0 -2.85c0,-8.58 -4.28,-14.29 -14.28,-15.72 -104.3,-11.43 -185.73,-194.3 -205.74,-282.88l-34.28 -148.58c115.72,-42.86 165.72,-122.87 165.72,-238.6 0,-194.3 -144.29,-297.16 -420.03,-297.16l-418.61 0c-10,0 -15.71,5.71 -15.71,15.71 0,10 2.85,14.29 14.28,15.72 48.58,8.57 77.15,54.29 77.15,111.44l0 714.34c0,57.15 -28.57,102.87 -77.15,111.44 -11.43,1.43 -14.28,5.71 -14.28,15.71 0,10.01 5.71,15.72 15.71,15.72z" class="fil10"/>
  <path d="M6881.63 21213.59c10,0 14.29,-7.14 15.71,-17.14l31.43 -337.17c1.43,-10 -5.71,-15.72 -15.71,-15.72 -10,0 -14.29,2.86 -15.72,14.29 -14.28,115.72 -130.01,202.87 -258.59,202.87l-122.87 0 0 -315.74c122.87,-65.72 262.88,50.01 377.18,-107.15 -114.3,50.01 -254.31,-65.72 -377.18,0l0 -371.46 90.01 0c128.58,0 244.31,87.15 258.59,202.88 1.43,11.43 5.72,14.28 15.72,14.28 10,0 17.14,-5.71 15.72,-15.71l-31.44 -337.17c-1.42,-10 -5.71,-17.15 -15.71,-17.15 -10,0 -12.86,4.29 -15.72,15.72 -5.71,25.71 -28.57,34.29 -88.58,34.29l-532.9 0c-10,0 -15.71,5.71 -15.71,15.71 0,10 2.85,14.29 14.28,15.72 48.58,8.57 77.15,54.29 77.15,111.44l0 714.34c0,57.15 -28.57,102.87 -77.15,111.44 -11.43,1.43 -14.28,5.71 -14.28,15.71 0,10.01 5.71,15.72 15.71,15.72l565.76 0c60.01,0 82.87,8.57 88.58,34.29 2.86,11.43 5.72,15.71 15.72,15.71z" class="fil10" id="_1_0"/>
  <path d="M7629.43 21177.88c262.88,0 421.46,-98.58 421.46,-302.89 0,-360.03 -515.75,-292.88 -515.75,-494.32 0,-67.15 62.86,-117.15 148.58,-117.15 92.87,0 184.3,44.28 291.45,254.3 10,20 41.44,15.72 37.15,-12.86l-47.15 -288.59c-4.28,-25.72 -10,-30 -20,-32.86 -44.29,-10 -138.58,-34.29 -252.88,-34.29 -265.73,0 -394.32,144.3 -394.32,295.74 0,314.31 514.33,281.45 514.33,480.04 0,84.29 -75.72,131.44 -172.87,131.44 -182.87,0 -314.31,-120.01 -361.46,-304.31 -5.71,-21.43 -40,-15.72 -37.14,12.86l30 310.02c2.86,25.72 11.43,27.15 20,32.86 62.86,41.43 168.59,70.01 338.6,70.01z" class="fil10" id="_2_1"/>
  <path d="M8500.1 21163.59l380.03 0c10,0 15.72,-5.71 15.72,-15.72 0,-10 -2.86,-14.28 -14.29,-15.71 -48.58,-8.57 -77.15,-54.29 -77.15,-111.44l0 -754.35c128.58,0 244.31,87.15 258.59,202.88 1.43,11.43 5.72,14.28 15.72,14.28 10,0 17.14,-5.71 15.71,-15.71l-31.43 -337.17c-1.43,-10 -5.71,-17.15 -15.71,-17.15 -10,0 -12.86,4.29 -15.72,15.72 -5.71,25.71 -28.57,34.29 -88.58,34.29l-505.75 0c-60.01,0 -82.87,-8.58 -88.58,-34.29 -2.86,-11.43 -5.72,-15.72 -15.72,-15.72 -10,0 -14.28,7.15 -15.71,17.15l-31.43 337.17c-1.43,10 5.71,15.71 15.71,15.71 10,0 14.29,-2.85 15.72,-14.28 14.28,-112.87 127.15,-202.88 258.59,-202.88l0 754.35c0,57.15 -28.57,102.87 -77.15,111.44 -11.43,1.43 -14.29,5.71 -14.29,15.71 0,10.01 5.72,15.72 15.72,15.72z" class="fil10" id="_3_2"/>
  <path d="M9190.75 21163.59l277.16 0c10.01,0 15.72,-5.71 15.72,-15.72 0,-10 -2.86,-14.28 -14.29,-15.71 -75.72,-14.29 -81.43,-58.58 -61.43,-111.44l42.86 -112.87 280.02 0 42.86 112.87c20.01,52.86 30.01,98.58 -67.14,111.44 -11.43,1.43 -14.29,5.71 -14.29,15.71 0,10.01 5.71,15.72 15.71,15.72l398.61 0c10,0 15.71,-5.71 15.71,-15.72 0,-10 -2.85,-14.28 -14.28,-15.71 -48.58,-8.57 -75.72,-58.58 -95.72,-111.44l-322.89 -844.35c-7.14,-18.58 -18.57,-27.15 -38.57,-27.15 -20,0 -34.29,8.57 -41.43,27.15l-330.03 844.35c-27.15,71.44 -55.72,107.15 -90.01,111.44 -11.43,1.43 -14.29,5.71 -14.29,15.71 0,10.01 5.72,15.72 15.72,15.72zm300.02 -362.89l100.01 -265.73 100.01 265.73 -200.02 0z" class="fil10" id="_4_3"/>
  <path d="M10734.33 21177.88c228.59,0 351.46,-125.73 351.46,-357.18l0 -512.9c0,-57.14 15.71,-102.86 64.29,-111.43 11.43,-1.43 14.28,-5.72 14.28,-15.72 0,-10 -5.71,-15.71 -15.71,-15.71l-284.31 0c-10,0 -15.72,5.71 -15.72,15.71 0,10 2.86,14.29 14.29,15.72 48.58,8.57 101.44,44.29 101.44,120.01l0 491.47c0,161.44 -61.44,230.02 -180.02,230.02 -138.58,0 -192.87,-94.3 -192.87,-217.17l0 -512.9c0,-57.14 28.57,-102.86 77.15,-111.43 11.43,-1.43 14.29,-5.72 14.29,-15.72 0,-10 -5.72,-15.71 -15.72,-15.71l-380.03 0c-10,0 -15.72,5.71 -15.72,15.71 0,10 2.86,14.29 14.29,15.72 48.58,8.57 77.15,54.29 77.15,111.43l0 512.9c0,200.02 115.72,357.18 371.46,357.18z" class="fil10" id="_5_4"/>
  <path d="M11426.41 21163.59l380.03 0c10,0 15.72,-5.71 15.72,-15.72 0,-10 -2.86,-14.28 -14.29,-15.71 -48.57,-8.57 -77.15,-54.29 -77.15,-111.44l0 -752.92 97.15 0c120.01,0 182.88,61.44 182.88,178.59 0,127.15 -74.3,181.44 -200.02,181.44l52.86 102.87 78.58 190.01c100.01,240.02 280.02,242.88 397.18,242.88 10,0 14.28,-4.29 14.28,-14.29l0 -2.85c0,-8.58 -4.28,-14.29 -14.28,-15.72 -104.3,-11.43 -185.73,-194.3 -205.74,-282.88l-34.28 -148.58c115.72,-42.86 165.72,-122.87 165.72,-238.6 0,-194.3 -144.29,-297.16 -420.03,-297.16l-418.61 0c-10,0 -15.71,5.71 -15.71,15.71 0,10 2.85,14.29 14.28,15.72 48.58,8.57 77.15,54.29 77.15,111.44l0 714.34c0,57.15 -28.57,102.87 -77.15,111.44 -11.43,1.43 -14.28,5.71 -14.28,15.71 0,10.01 5.71,15.72 15.71,15.72z" class="fil10" id="_6_5"/>
  <path d="M12608.54 21163.59l277.16 0c10.01,0 15.72,-5.71 15.72,-15.72 0,-10 -2.86,-14.28 -14.29,-15.71 -75.72,-14.29 -81.43,-58.58 -61.43,-111.44l42.86 -112.87 280.02 0 42.86 112.87c20.01,52.86 30.01,98.58 -67.14,111.44 -11.43,1.43 -14.29,5.71 -14.29,15.71 0,10.01 5.71,15.72 15.71,15.72l398.61 0c10,0 15.71,-5.71 15.71,-15.72 0,-10 -2.85,-14.28 -14.28,-15.71 -48.58,-8.57 -75.72,-58.58 -95.72,-111.44l-322.89 -844.35c-7.14,-18.58 -18.57,-27.15 -38.57,-27.15 -20,0 -34.29,8.57 -41.43,27.15l-330.03 844.35c-27.15,71.44 -55.72,107.15 -90.01,111.44 -11.43,1.43 -14.29,5.71 -14.29,15.71 0,10.01 5.72,15.72 15.72,15.72zm300.02 -362.89l100.01 -265.73 100.01 265.73 -200.02 0z" class="fil10" id="_7_6"/>
  <path d="M13787.8 21163.59l267.17 0c10,0 15.71,-5.71 15.71,-15.72 0,-10 -2.85,-14.28 -14.28,-15.71 -48.58,-8.57 -84.3,-54.29 -84.3,-111.44l0 -625.77 420.04 745.78c8.57,14.29 21.43,22.86 38.57,22.86l237.17 0c10,0 15.71,-5.71 15.71,-15.72 0,-10 -2.86,-14.28 -14.29,-15.71 -48.57,-8.57 -64.29,-54.29 -64.29,-111.44l0 -714.34c0,-57.15 15.72,-102.87 64.29,-111.44 11.43,-1.43 14.29,-5.72 14.29,-15.72 0,-10 -5.71,-15.71 -15.71,-15.71l-267.17 0c-10,0 -15.72,5.71 -15.72,15.71 0,10 2.86,14.29 14.29,15.72 48.58,8.57 84.29,54.29 84.29,111.44l0 530.04 -277.16 -480.04c-108.58,-187.16 -108.58,-192.87 -174.3,-192.87l-244.31 0c-10,0 -15.71,5.71 -15.71,15.71 0,10 2.85,14.29 14.28,15.72 48.58,8.57 64.29,54.29 64.29,111.44l0 714.34c0,57.15 -15.71,102.87 -64.29,111.44 -11.43,1.43 -14.28,5.71 -14.28,15.71 0,10.01 5.71,15.72 15.71,15.72z" class="fil10" id="_8"/>
  <path d="M15152.8 21163.59l380.03 0c10,0 15.72,-5.71 15.72,-15.72 0,-10 -2.86,-14.28 -14.29,-15.71 -48.58,-8.57 -77.15,-54.29 -77.15,-111.44l0 -754.35c128.58,0 244.31,87.15 258.59,202.88 1.43,11.43 5.72,14.28 15.72,14.28 10,0 17.14,-5.71 15.71,-15.71l-31.43 -337.17c-1.43,-10 -5.71,-17.15 -15.71,-17.15 -10,0 -12.86,4.29 -15.72,15.72 -5.71,25.71 -28.57,34.29 -88.58,34.29l-505.75 0c-60.01,0 -82.87,-8.58 -88.58,-34.29 -2.86,-11.43 -5.72,-15.72 -15.72,-15.72 -10,0 -14.28,7.15 -15.71,17.15l-31.43 337.17c-1.43,10 5.71,15.71 15.71,15.71 10,0 14.29,-2.85 15.72,-14.28 14.28,-112.87 127.15,-202.88 258.59,-202.88l0 754.35c0,57.15 -28.57,102.87 -77.15,111.44 -11.43,1.43 -14.29,5.71 -14.29,15.71 0,10.01 5.72,15.72 15.72,15.72z" class="fil10" id="_9"/>
  <path d="M16687.81 21213.59c10,0 14.29,-7.14 15.71,-17.14l31.43 -337.17c1.43,-10 -5.71,-15.72 -15.71,-15.72 -10,0 -14.29,2.86 -15.72,14.29 -14.28,115.72 -130.01,202.87 -258.59,202.87l-122.87 0 0 -315.74c122.87,-65.72 262.88,50.01 377.18,-107.15 -114.3,50.01 -254.31,-65.72 -377.18,0l0 -371.46 90.01 0c128.58,0 244.31,87.15 258.59,202.88 1.43,11.43 5.72,14.28 15.72,14.28 10,0 17.14,-5.71 15.72,-15.71l-31.44 -337.17c-1.42,-10 -5.71,-17.15 -15.71,-17.15 -10,0 -12.86,4.29 -15.72,15.72 -5.71,25.71 -28.57,34.29 -88.58,34.29l-532.9 0c-10,0 -15.71,5.71 -15.71,15.71 0,10 2.85,14.29 14.28,15.72 48.58,8.57 77.15,54.29 77.15,111.44l0 714.34c0,57.15 -28.57,102.87 -77.15,111.44 -11.43,1.43 -14.28,5.71 -14.28,15.71 0,10.01 5.71,15.72 15.71,15.72l565.76 0c60.01,0 82.87,8.57 88.58,34.29 2.86,11.43 5.72,15.71 15.72,15.71z" class="fil10" id="_10"/>
  <line y2="19690.63" x2="17138.27" y1="19690.63" x1="4634.82" class="fil2 str6"/>
 </g>
</svg>