<?xml version="1.0" encoding="UTF-8"?>
<!DOCTYPE svg PUBLIC "-//W3C//DTD SVG 1.1//EN" "http://www.w3.org/Graphics/SVG/1.1/DTD/svg11.dtd">
<!-- Creator: CorelDRAW (Evaluation Version) -->
<svg xmlns="http://www.w3.org/2000/svg" xml:space="preserve" width="215.9mm" height="279.4mm" version="1.1" style="shape-rendering:geometricPrecision; text-rendering:geometricPrecision; image-rendering:optimizeQuality; fill-rule:evenodd; clip-rule:evenodd"
viewBox="0 0 21590 27940"
 xmlns:xlink="http://www.w3.org/1999/xlink"
 xmlns:xodm="http://www.corel.com/coreldraw/odm/2003">
 <defs>
  <style type="text/css">
   <![CDATA[
    .str5 {stroke:#373435;stroke-width:100;stroke-miterlimit:22.9256}
    .str4 {stroke:#373435;stroke-width:300;stroke-miterlimit:22.9256}
    .str0 {stroke:#373435;stroke-width:250;stroke-miterlimit:22.9256}
    .str3 {stroke:#FEFEFE;stroke-width:20;stroke-miterlimit:22.9256}
    .str1 {stroke:#3BB403;stroke-width:20;stroke-miterlimit:22.9256}
    .str2 {stroke:#C2F74C;stroke-width:20;stroke-miterlimit:22.9256}
    .fil2 {fill:none}
    .fil4 {fill:#FEFEFE}
    .fil6 {fill:#FEFEFE}
    .fil3 {fill:#373435}
    .fil9 {fill:#056102}
    .fil7 {fill:#218503}
    .fil0 {fill:#3BB403}
    .fil8 {fill:#9ADA36}
    .fil5 {fill:#C2F74C}
    .fil1 {fill:#FEF536}
   ]]>
  </style>
 </defs>
 <g id="Layer_x0020_1">
  <metadata id="CorelCorpID_0Corel-Layer"/>
  <polygon class="fil0" points="9874.97,13569.75 11517.63,13569.75 11517.63,15141.48 11506.17,15133.41 10898.74,15995.57 10460.47,15995.57 9910.84,15127.87 9874.97,15150.59 "/>
  <path class="fil1" d="M10988 12642.03c181.55,312.8 293.38,739.42 293.38,1209.79 0,959.43 -465.06,1737.2 -1038.75,1737.2 -21.11,0 -42.07,-1.07 -62.87,-3.15l-417.67 -987.77 325.39 -1378.53 383.87 -577.54 516.65 0z"/>
  <path class="fil2 str0" d="M10464.29 12611.24c-881.54,1386.72 -811.95,2547.44 208.77,3482.18"/>
  <path class="fil2 str0" d="M10926.98 12611.24c881.54,1386.72 811.95,2547.44 -208.77,3482.18"/>
  <circle class="fil3" cx="10684.14" cy="16765.04" r="124.85"/>
  <line class="fil2 str0" x1="10684.13" y1="16765.05" x2="10690.32" y2= "16037.74" />
  <circle class="fil4" cx="10458.85" cy="13619.05" r="267.59"/>
  <circle class="fil4" cx="10356.38" cy="14207.14" r="120.22"/>
  <circle class="fil0 str1" cx="10686.64" cy="10470.18" r="501.61"/>
  <circle class="fil5 str2" cx="10584.24" cy="10317.32" r="443.73"/>
  <circle class="fil6 str3" cx="10464.03" cy="10289.12" r="225.58"/>
  <circle class="fil2 str0" cx="10696" cy="10471.67" r="601.68"/>
  <circle class="fil0 str1" cx="10671.2" cy="11931.07" r="573.29"/>
  <circle class="fil5 str2" cx="10554.16" cy="11756.37" r="507.13"/>
  <circle class="fil6 str3" cx="10416.78" cy="11724.14" r="257.81"/>
  <circle class="fil2 str0" cx="10681.9" cy="11932.77" r="687.66"/>
  <path class="fil2 str0" d="M10869.22 9858.65c217.15,-460.17 530.51,-1021.77 876.44,-1142.52 1177.84,-411.16 1455.31,1270.11 540.3,1279.14 -604.46,5.97 -531.77,-730.32 -63.59,-739.62"/>
  <path class="fil2 str0" d="M10554.39 9858.65c-217.15,-460.17 -530.51,-1021.77 -876.44,-1142.52 -1177.84,-411.16 -1455.31,1270.11 -540.3,1279.14 604.46,5.97 531.77,-730.32 63.59,-739.62"/>
  <circle class="fil3" cx="9213.48" cy="9256.83" r="124.85"/>
  <circle class="fil3" cx="12210.14" cy="9256.83" r="124.85"/>
  <g id="_2075347524064">
   <path class="fil7" d="M12455.13 12339.8l506.2 0 2273.87 900.57 439.62 374.38 0 567.58 -372.13 363.26 -1410.5 0 -848.13 -335.9 -1242.66 -1107.02 184.84 -262.4c823.04,466.05 1134.25,682.61 1459.28,683.64l-1391.55 -779.78 164.23 -233.14c440.75,77.83 968.74,173.02 1584.05,285.57l-1347.12 -456.76z"/>
   <path class="fil8" d="M11690.52 12861.1l111.77 -124.29c962.79,537.58 1295.03,786 1643.23,787.1l-1563.27 -876.01 31.82 -35.38 1684.43 915.24c62.2,262.17 22.64,524.23 -118.69,786.19l-1277.85 -680.54 31.25 -22.62 -542.69 -749.69z"/>
   <path class="fil8" d="M12999.63 12524.42l1935.18 596.99c35.79,303.16 -136.41,544.48 -516.61,723.98l-2504.13 -1232.87 134.54 -131.37c472.77,82.9 1057.31,188.03 1753.64,315.41l-802.62 -272.14z"/>
   <path class="fil2 str0" d="M12358.72 12336.04c6668.81,1225.2 1697.21,4085.11 -770.78,375.37"/>
   <path class="fil8" d="M13511.8 13525.83l1611.75 528.63c-303.26,80.91 -802.2,-22.6 -1496.82,-310.54l-114.93 -218.09z"/>
   <path class="fil2 str0" d="M11675.85 12526.74c647.22,132.32 2603.51,1823.68 4013.66,1344.54"/>
   <circle class="fil3" cx="11587.93" cy="12711.42" r="124.85"/>
   <circle class="fil3" cx="11689.58" cy="12529.55" r="124.85"/>
   <circle class="fil3" cx="11689.58" cy="12529.55" r="124.85"/>
   <rect class="fil3" transform="matrix(0.867189 0.497979 -0.723592 1.26007 11589.9 12456.3)" width="89.86" height="151.35"/>
   <path class="fil8" d="M16005.35 10902.62l0 226.34 -313.26 507.41 -1489.21 780.56 31.13 59.4 -1542.46 0 -768.78 -238.06 0 -118.27c1300.45,-402.66 1646.32,65.71 2476.78,-14.93l-99.21 -205.29 -1244.25 -222.92 -1133.32 179.25 0 -227.35c2618.5,-1372.99 3849.23,-1252.54 4082.58,-726.14zm-2670.72 732.31l1753.38 -640.67 188.38 40.32c-22.74,-22.62 -36.83,-53.93 -36.83,-88.53 0,-68.94 55.9,-124.84 124.85,-124.84 68.94,0 124.84,55.9 124.84,124.84 0,53.41 -33.56,98.99 -80.72,116.82l0.02 0c-545.5,285.41 -1073.87,501.06 -1631.87,632.92l-442.05 -60.86z"/>
   <path class="fil9" d="M15925.31 11186.19l-21.76 -585.3c-495,461.98 -582.08,1178.77 -1422.92,1313.54l824.07 -28.28 620.61 -699.96z"/>
   <path class="fil2 str0" d="M11769.95 11460.22c6569.02,-3492.19 4596.85,2260.92 30.56,718.52"/>
   <path class="fil2 str0" d="M11847.26 11838.22c1356.33,-108.04 2449.1,-407.58 3501.55,-979.73"/>
   <circle class="fil3" cx="15348.81" cy="10858.49" r="124.85"/>
   <circle class="fil3" cx="14730.03" cy="10859.17" r="124.85"/>
   <path class="fil2 str0" d="M14730.04 10859.17c-210.56,233.61 -385.27,402.98 -524.11,508.1"/>
   <path class="fil2 str4" d="M13181.63 11651.45c517.71,209.39 1187.03,362.56 1977.57,316.24"/>
   <circle class="fil3" cx="15149.32" cy="11944.17" r="124.85"/>
   <path class="fil2 str5" d="M12448.34 11845.72c156.37,-34.48 286.41,-34.39 437.49,-61.12 282.16,-49.92 655.93,100.3 1085.03,195.16"/>
   <circle class="fil3" cx="11768.26" cy="11460.81" r="124.85"/>
   <circle class="fil3" cx="11814.34" cy="12183.76" r="124.85"/>
  </g>
  <ellipse class="fil3" cx="12350.97" cy="15367.75" rx="183.83" ry="180.22"/>
  <ellipse class="fil3" cx="13010.04" cy="15367.75" rx="183.83" ry="180.22"/>
  <ellipse class="fil3" cx="8400.43" cy="15367.75" rx="183.83" ry="180.22"/>
  <ellipse class="fil3" cx="9059.5" cy="15367.75" rx="183.83" ry="180.22"/>
  <g id="_2075347518400">
   <path class="fil7" d="M8915.07 12339.8l-506.2 0 -2273.87 900.57 -439.62 374.38 0 567.58 372.13 363.26 1410.5 0 848.13 -335.9 1242.66 -1107.02 -184.84 -262.4c-823.04,466.05 -1134.25,682.61 -1459.28,683.64l1391.55 -779.78 -164.23 -233.14c-440.75,77.83 -968.74,173.02 -1584.05,285.57l1347.12 -456.76z"/>
   <path class="fil8" d="M9679.68 12861.1l-111.77 -124.29c-962.79,537.58 -1295.03,786 -1643.23,787.1l1563.27 -876.01 -31.82 -35.38 -1684.43 915.24c-62.2,262.17 -22.64,524.23 118.69,786.19l1277.85 -680.54 -31.25 -22.62 542.69 -749.69z"/>
   <path class="fil8" d="M8370.57 12524.42l-1935.18 596.99c-35.79,303.16 136.41,544.48 516.61,723.98l2504.13 -1232.87 -134.54 -131.37c-472.77,82.9 -1057.31,188.03 -1753.64,315.41l802.62 -272.14z"/>
   <path class="fil2 str0" d="M9011.48 12336.04c-6668.81,1225.2 -1697.21,4085.11 770.78,375.37"/>
   <path class="fil8" d="M7858.4 13525.83l-1611.75 528.63c303.26,80.91 802.2,-22.6 1496.82,-310.54l114.93 -218.09z"/>
   <path class="fil2 str0" d="M9694.35 12526.74c-647.22,132.32 -2603.51,1823.68 -4013.66,1344.54"/>
   <circle class="fil3" cx="9782.26" cy="12711.42" r="124.85"/>
   <circle class="fil3" cx="9680.62" cy="12529.55" r="124.85"/>
   <circle class="fil3" cx="9680.62" cy="12529.55" r="124.85"/>
   <rect class="fil3" transform="matrix(-0.867189 0.497979 0.723592 1.26007 9780.3 12456.3)" width="89.86" height="151.35"/>
   <path class="fil8" d="M5364.85 10902.62l0 226.34 313.26 507.41 1489.21 780.56 -31.13 59.4 1542.46 0 768.78 -238.06 0 -118.27c-1300.45,-402.66 -1646.32,65.71 -2476.78,-14.93l99.21 -205.29 1244.25 -222.92 1133.32 179.25 0 -227.35c-2618.5,-1372.99 -3849.23,-1252.54 -4082.58,-726.14zm2670.72 732.31l-1753.38 -640.67 -188.38 40.32c22.74,-22.62 36.83,-53.93 36.83,-88.53 0,-68.94 -55.9,-124.84 -124.85,-124.84 -68.94,0 -124.84,55.9 -124.84,124.84 0,53.41 33.56,98.99 80.72,116.82l-0.02 0c545.5,285.41 1073.87,501.06 1631.87,632.92l442.05 -60.86z"/>
   <path class="fil9" d="M5444.89 11186.19l21.76 -585.3c495,461.98 582.08,1178.77 1422.92,1313.54l-824.07 -28.28 -620.61 -699.96z"/>
   <path class="fil2 str0" d="M9600.25 11460.22c-6569.02,-3492.19 -4596.85,2260.92 -30.56,718.52"/>
   <path class="fil2 str0" d="M9522.94 11838.22c-1356.33,-108.04 -2449.1,-407.58 -3501.55,-979.73"/>
   <circle class="fil3" cx="6021.39" cy="10858.49" r="124.85"/>
   <circle class="fil3" cx="6640.16" cy="10859.17" r="124.85"/>
   <path class="fil2 str0" d="M6640.16 10859.17c210.56,233.61 385.27,402.98 524.11,508.1"/>
   <path class="fil2 str4" d="M8188.57 11651.45c-517.71,209.39 -1187.03,362.56 -1977.57,316.24"/>
   <circle class="fil3" cx="6220.89" cy="11944.17" r="124.85"/>
   <path class="fil2 str5" d="M8921.86 11845.72c-156.37,-34.48 -286.41,-34.39 -437.49,-61.12 -282.16,-49.92 -655.93,100.3 -1085.03,195.16"/>
   <circle class="fil3" cx="9601.93" cy="11460.81" r="124.85"/>
   <circle class="fil3" cx="9555.85" cy="12183.76" r="124.85"/>
  </g>
 </g>
</svg>
